<svg xmlns="http://www.w3.org/2000/svg" viewBox="0 0 825 443" role="img" aria-label="GEK logo">
  <title>GEK Logo</title>
  <path fill="#05B5A5" fill-rule="evenodd" d="M161.75,127.75L146.5,130.25 133.25,134 119.75,139.25 111.25,143.5 100.75,150 88.5,159 75.5,171.25 69,178.75 61.75,188 53.25,201.5 45,218.5 44.75,220.25 42,227.5 39,239 37,251 36,263.5 36.5,279.75 38,291.75 38.75,293.5 39,296.75 42,308.25 46,320.25 52,332.75 54.5,336.5 56,339.75 66,354 74.75,364 84,373 95.75,382 109.75,390.75 111,391 112.25,392 124.5,397.75 133.5,401 147,404.75 149,404.75 152,405.75 154,405.75 158.5,406.75 169.25,407.75 188.25,407.25 204.25,404.75 215,402 227,397.75 241.25,391 253.25,383.75 264,375.75 270.75,370 284.25,355.75 292.25,345 299,333.75 304.5,322.25 308.75,311 312.5,297.25 314.75,282.75 315.5,263 315.25,253.25 314.5,252.5 310,252.25 176.25,252.5 175.5,253.5 175.75,294.5 176.75,295 265,294.5 265.75,295.25 265.75,296.75 263.75,303 259,314 253,324 248.5,330 239.25,339.5 232.25,345.25 227,348.75 212.75,356 199.5,360.25 188.25,362.5 181.25,363 165,362.75 152.75,360.5 144.25,357.75 133.5,353 123.25,347 117.25,342.5 106,331.75 99.25,323.25 91.25,310 86.75,299.25 83.5,288.75 81.5,276.5 81,264.25 81.75,255 82.75,249.25 86,237.5 90,228 97,215.5 104.25,205.75 115.5,194.75 124.25,188 135.25,181.75 137.25,179.25 148,160.5 168.5,129.25 168.5,128 168,127.5ZM590.75,133.5L590.25,134.25 590.5,207.25 590,399.25 590.5,404.5 591.5,405 632,405.25 633.75,404.5 634,319.5 635,317.75 656.5,293.5 681.25,327.5 689,339.25 697.75,350.75 722,385.25 726.5,390.75 736.5,404.75 769.25,405.25 788.25,405 788.75,404.5 788.75,403.5 685.25,261.25 685.25,260.5 727,210 780,144 787.75,135 788,133.75 787.5,133.25 732.75,133.5 725,142.5 678,201.25 648.5,236.75 635.75,253.25 634.5,254.25 634,236.5 634.25,134.25 633,133ZM182.75,152.75L182.75,153.5 184.5,154.5 205,160.75 207,161 235.5,170.5 249.25,176 256,179.5 258,181 261,184.25 261,185 260,185.75 256,186 245.5,183.5 242.25,183.5 240.75,184.5 240.5,186.25 241.75,187.75 252.75,193 254,194.25 254,195 253.25,195.75 248.5,197.75 240,203 237.75,205 237.5,207 238.5,208.25 240,208.5 253,202.25 258.25,200.5 259.5,201.75 261,205.5 264,218 266,221 267.5,221.25 268.75,220.75 270,219.25 268.5,202 269.25,201.25 276.5,203 280.5,204.75 287,206.25 288.5,206 289.5,204.5 289,202 286.25,199.75 277,196.75 273,194.5 271.5,192.75 271.75,191.75 274.5,189.25 284.75,183.25 286,181.75 286,179.75 285,178.5 283.75,178.25 277.75,180 274.75,181.5 273.5,181.25 266.5,172.75 261.25,167.75 241,151.75 232.5,145.5 232.5,145 233.75,144.75 240.25,147 247.75,151 260,158.75 261.75,159.25 277.25,159.5 298.5,158.75 300,158.25 306.5,157.75 322.75,154 332,152.75 332.75,151.75 335,143.25 337.25,138.5 340,135.5 344,133.5 344.75,134.25 344.75,135.25 339.75,143.5 333.75,158.25 332,165.75 332,172.25 333,175.75 335,179 338.75,182.75 343,186 345.5,188.75 346,194.25 345.75,207.25 346,208.5 347,209.5 348.25,210 350.5,210 351.75,208.25 352.25,196.75 353.5,195.75 368.5,199.75 370.5,199.75 372,198.25 372.75,198.75 372.5,253.25 373.75,253.75 416.75,208.5 417,174.75 417.75,174 528,174.25 529.25,173.25 529.5,134.75 529.25,133.75 527.75,133 373.5,133.25 372.75,134 372.5,139 372.75,193 371.75,194 369.5,193.5 365.5,193.5 354.25,190.75 353,189.75 350,176.5 349.5,172.25 349.5,165.25 350.25,160.5 353.75,150.25 355,145.25 356,138 356,84.5 354.5,83.25 341,81.25 328.5,80.5 318,80.5 296.75,82.5 292,83.25 278,86.75 257.5,94 241.5,101.75 226.75,110.75 212,122 196.75,136.75ZM421.75,246.75L402.5,267.25 390.5,279.25 373,297.75 372.5,298.75 372.5,404.25 374.25,405.25 528.5,405 529.25,403.75 529.5,386.25 529.25,364.75 528.5,363.75 433.25,363.75 417.5,363.5 417,363 417,289.5 417.5,289 520.25,289 521.25,287.5 521.25,247.25 520.25,246.5ZM562.25,90.25L562,87.5 561,86.5 538.25,86.75 531.25,87.5 500.25,89 484.75,89 484,88 486,86 488,85 494.5,84 505.75,83.25 536.25,83 541,82.25 560.5,82 562.25,80.75 562.75,79.5 562,72 560.5,69.5 558.25,67.5 504,41.75 494.75,38 490,36.75 482.5,36.5 475,37.5 451.25,39.25 434.75,41.5 429.5,41.75 424.5,42.75 421.75,42.75 416.75,43.75 413.25,43.75 409.25,44.5 385.25,46.75 376.25,48.25 373.75,50 372.75,52 372.75,58.75 373.5,60.75 373.75,63.5 375.75,68.75 381.75,80.5 389.75,91.25 398.5,100.25 406.75,106.5 419.25,113.25 431,117 436.25,117.75 441.75,117.75 448.25,117 451.25,116.25 455.75,116 475.75,113 480.5,112.75 483.5,112 502.5,109.5 506.5,108.5 511.25,108.25 513.5,107.5 520.25,107 537,104.25 546,103.25 551,101.5 556.5,98.25 560.25,94.5ZM456.5,45L465.25,45 471.5,47.25 476.25,51 478.75,54 480.75,57.75 482,61.5 482.5,65 482,71.5 479.25,77.5 475,82.25 472.25,84.25 467.5,86.75 462.75,88 457,88 453,87 447.25,84 444.25,81.25 441.5,77.75 439,71.5 439,62.75 439.5,60.5 442,55.25 444,52.5 448,48.75 450.75,47Z"/>
</svg>
